<?xml version="1.0" encoding="UTF-8" standalone="no"?>
<!DOCTYPE svg PUBLIC "-//W3C//DTD SVG 1.1//EN"
 "http://www.w3.org/Graphics/SVG/1.1/DTD/svg11.dtd">
<!-- Generated by graphviz version 2.40.1 (20161225.0304)
 -->
<!-- Title: Test Pages: 1 -->
<svg width="569pt" height="288pt"
 viewBox="0.00 0.00 569.38 288.00" xmlns="http://www.w3.org/2000/svg" xmlns:xlink="http://www.w3.org/1999/xlink">
<g id="graph0" class="graph" transform="scale(.8276 .8276) rotate(0) translate(4 344)">
<title>Test</title>
<polygon fill="#ffffff" stroke="transparent" points="-4,4 -4,-344 684,-344 684,4 -4,4"/>
<g id="clust1" class="cluster">
<title>cluster_0</title>
<polygon fill="none" stroke="#ffffff" points="14.6237,-8 14.6237,-332 149.8925,-332 149.8925,-8 14.6237,-8"/>
<text text-anchor="middle" x="82.2581" y="-316.8" font-family="Times,serif" font-size="14.00" fill="#000000">input</text>
</g>
<g id="clust2" class="cluster">
<title>cluster_1</title>
<polygon fill="none" stroke="#ffffff" points="186.4516,-46 186.4516,-294 321.7204,-294 321.7204,-46 186.4516,-46"/>
<text text-anchor="middle" x="254.086" y="-278.8" font-family="Times,serif" font-size="14.00" fill="#000000">layer 1</text>
</g>
<g id="clust3" class="cluster">
<title>cluster_2</title>
<polygon fill="none" stroke="#ffffff" points="358.2796,-122 358.2796,-218 493.5484,-218 493.5484,-122 358.2796,-122"/>
<text text-anchor="middle" x="425.914" y="-202.8" font-family="Times,serif" font-size="14.00" fill="#000000">layer 2</text>
</g>
<g id="clust4" class="cluster">
<title>cluster_3</title>
<polygon fill="none" stroke="#ffffff" points="530.1075,-122 530.1075,-218 665.3763,-218 665.3763,-122 530.1075,-122"/>
<text text-anchor="middle" x="597.7419" y="-202.8" font-family="Times,serif" font-size="14.00" fill="#000000">output</text>
</g>
<!-- A -->
<g id="node1" class="node">
<title>A</title>
<ellipse fill="none" stroke="#000000" cx="82.3763" cy="-273" rx="29" ry="29"/>
<text text-anchor="middle" x="82.3763" y="-268.8" font-family="Times,serif" font-size="14.00" fill="#000000">Size</text>
</g>
<!-- N1 -->
<g id="node5" class="node">
<title>N1</title>
<ellipse fill="none" stroke="#000000" cx="254.3763" cy="-83" rx="29" ry="29"/>
<text text-anchor="start" x="240.3832" y="-79.8" font-family="Times,serif" font-size="14.00" fill="#000000">f</text>
<text text-anchor="start" x="245.0453" y="-79.8" font-family="Times,serif" baseline-shift="sub" font-size="14.00" fill="#000000">1</text>
<text text-anchor="start" x="252.0453" y="-79.8" font-family="Times,serif" font-size="14.00" fill="#000000">(x)</text>
</g>
<!-- A&#45;&gt;N1 -->
<g id="edge1" class="edge">
<title>A&#45;&gt;N1</title>
<path fill="none" stroke="#000000" d="M102.9685,-252.3167C108.3763,-246.7591 114.1549,-240.7062 119.3763,-235 164.4813,-185.7076 172.2714,-170.2924 217.3763,-121 220.395,-117.7011 223.5999,-114.2863 226.8116,-110.9184"/>
<polygon fill="#000000" stroke="#000000" points="229.3651,-113.3126 233.7842,-103.6833 224.3247,-108.4551 229.3651,-113.3126"/>
</g>
<!-- N2 -->
<g id="node6" class="node">
<title>N2</title>
<ellipse fill="none" stroke="#000000" cx="254.3763" cy="-235" rx="29" ry="29"/>
<text text-anchor="start" x="240.3832" y="-231.8" font-family="Times,serif" font-size="14.00" fill="#000000">f</text>
<text text-anchor="start" x="245.0453" y="-231.8" font-family="Times,serif" baseline-shift="sub" font-size="14.00" fill="#000000">2</text>
<text text-anchor="start" x="252.0453" y="-231.8" font-family="Times,serif" font-size="14.00" fill="#000000">(x)</text>
</g>
<!-- A&#45;&gt;N2 -->
<g id="edge5" class="edge">
<title>A&#45;&gt;N2</title>
<path fill="none" stroke="#000000" d="M110.7786,-266.7251C139.5353,-260.3719 184.1933,-250.5056 216.0683,-243.4634"/>
<polygon fill="#000000" stroke="#000000" points="216.9224,-246.8592 225.9318,-241.2842 215.4122,-240.024 216.9224,-246.8592"/>
</g>
<!-- N3 -->
<g id="node7" class="node">
<title>N3</title>
<ellipse fill="none" stroke="#000000" cx="254.3763" cy="-159" rx="29" ry="29"/>
<text text-anchor="start" x="240.3832" y="-155.8" font-family="Times,serif" font-size="14.00" fill="#000000">f</text>
<text text-anchor="start" x="245.0453" y="-155.8" font-family="Times,serif" baseline-shift="sub" font-size="14.00" fill="#000000">3</text>
<text text-anchor="start" x="252.0453" y="-155.8" font-family="Times,serif" font-size="14.00" fill="#000000">(x)</text>
</g>
<!-- A&#45;&gt;N3 -->
<g id="edge9" class="edge">
<title>A&#45;&gt;N3</title>
<path fill="none" stroke="#000000" d="M106.6549,-256.9084C136.6618,-237.0201 187.8571,-203.0883 221.4013,-180.8556"/>
<polygon fill="#000000" stroke="#000000" points="223.5416,-183.636 229.9434,-175.1939 219.6744,-177.8012 223.5416,-183.636"/>
</g>
<!-- B -->
<g id="node2" class="node">
<title>B</title>
<ellipse fill="none" stroke="#000000" cx="82.3763" cy="-197" rx="29" ry="29"/>
<text text-anchor="middle" x="82.3763" y="-192.8" font-family="Times,serif" font-size="14.00" fill="#000000">Rooms</text>
</g>
<!-- B&#45;&gt;N1 -->
<g id="edge2" class="edge">
<title>B&#45;&gt;N1</title>
<path fill="none" stroke="#000000" d="M106.6549,-180.9084C136.6618,-161.0201 187.8571,-127.0883 221.4013,-104.8556"/>
<polygon fill="#000000" stroke="#000000" points="223.5416,-107.636 229.9434,-99.1939 219.6744,-101.8012 223.5416,-107.636"/>
</g>
<!-- B&#45;&gt;N2 -->
<g id="edge6" class="edge">
<title>B&#45;&gt;N2</title>
<path fill="none" stroke="#000000" d="M110.7786,-203.2749C139.5353,-209.6281 184.1933,-219.4944 216.0683,-226.5366"/>
<polygon fill="#000000" stroke="#000000" points="215.4122,-229.976 225.9318,-228.7158 216.9224,-223.1408 215.4122,-229.976"/>
</g>
<!-- B&#45;&gt;N3 -->
<g id="edge10" class="edge">
<title>B&#45;&gt;N3</title>
<path fill="none" stroke="#000000" d="M110.7786,-190.7251C139.5353,-184.3719 184.1933,-174.5056 216.0683,-167.4634"/>
<polygon fill="#000000" stroke="#000000" points="216.9224,-170.8592 225.9318,-165.2842 215.4122,-164.024 216.9224,-170.8592"/>
</g>
<!-- C -->
<g id="node3" class="node">
<title>C</title>
<ellipse fill="none" stroke="#000000" cx="82.3763" cy="-121" rx="29" ry="29"/>
<text text-anchor="middle" x="82.3763" y="-116.8" font-family="Times,serif" font-size="14.00" fill="#000000">Adress</text>
</g>
<!-- C&#45;&gt;N1 -->
<g id="edge3" class="edge">
<title>C&#45;&gt;N1</title>
<path fill="none" stroke="#000000" d="M110.7786,-114.7251C139.5353,-108.3719 184.1933,-98.5056 216.0683,-91.4634"/>
<polygon fill="#000000" stroke="#000000" points="216.9224,-94.8592 225.9318,-89.2842 215.4122,-88.024 216.9224,-94.8592"/>
</g>
<!-- C&#45;&gt;N2 -->
<g id="edge7" class="edge">
<title>C&#45;&gt;N2</title>
<path fill="none" stroke="#000000" d="M106.6549,-137.0916C136.6618,-156.9799 187.8571,-190.9117 221.4013,-213.1444"/>
<polygon fill="#000000" stroke="#000000" points="219.6744,-216.1988 229.9434,-218.8061 223.5416,-210.364 219.6744,-216.1988"/>
</g>
<!-- C&#45;&gt;N3 -->
<g id="edge11" class="edge">
<title>C&#45;&gt;N3</title>
<path fill="none" stroke="#000000" d="M110.7786,-127.2749C139.5353,-133.6281 184.1933,-143.4944 216.0683,-150.5366"/>
<polygon fill="#000000" stroke="#000000" points="215.4122,-153.976 225.9318,-152.7158 216.9224,-147.1408 215.4122,-153.976"/>
</g>
<!-- D -->
<g id="node4" class="node">
<title>D</title>
<ellipse fill="none" stroke="#000000" cx="82.3763" cy="-45" rx="29" ry="29"/>
<text text-anchor="middle" x="82.3763" y="-40.8" font-family="Times,serif" font-size="14.00" fill="#000000">Wealth</text>
</g>
<!-- D&#45;&gt;N1 -->
<g id="edge4" class="edge">
<title>D&#45;&gt;N1</title>
<path fill="none" stroke="#000000" d="M110.7786,-51.2749C139.5353,-57.6281 184.1933,-67.4944 216.0683,-74.5366"/>
<polygon fill="#000000" stroke="#000000" points="215.4122,-77.976 225.9318,-76.7158 216.9224,-71.1408 215.4122,-77.976"/>
</g>
<!-- D&#45;&gt;N2 -->
<g id="edge8" class="edge">
<title>D&#45;&gt;N2</title>
<path fill="none" stroke="#000000" d="M102.9685,-65.6833C108.3763,-71.2409 114.1549,-77.2938 119.3763,-83 164.4813,-132.2924 172.2714,-147.7076 217.3763,-197 220.395,-200.2989 223.5999,-203.7137 226.8116,-207.0816"/>
<polygon fill="#000000" stroke="#000000" points="224.3247,-209.5449 233.7842,-214.3167 229.3651,-204.6874 224.3247,-209.5449"/>
</g>
<!-- D&#45;&gt;N3 -->
<g id="edge12" class="edge">
<title>D&#45;&gt;N3</title>
<path fill="none" stroke="#000000" d="M106.6549,-61.0916C136.6618,-80.9799 187.8571,-114.9117 221.4013,-137.1444"/>
<polygon fill="#000000" stroke="#000000" points="219.6744,-140.1988 229.9434,-142.8061 223.5416,-134.364 219.6744,-140.1988"/>
</g>
<!-- output -->
<g id="node8" class="node">
<title>output</title>
<ellipse fill="none" stroke="#000000" cx="426.3763" cy="-159" rx="29" ry="29"/>
<text text-anchor="start" x="412.3832" y="-155.8" font-family="Times,serif" font-size="14.00" fill="#000000">f</text>
<text text-anchor="start" x="417.0453" y="-155.8" font-family="Times,serif" baseline-shift="sub" font-size="14.00" fill="#000000">4</text>
<text text-anchor="start" x="424.0453" y="-155.8" font-family="Times,serif" font-size="14.00" fill="#000000">(x)</text>
</g>
<!-- N1&#45;&gt;output -->
<g id="edge13" class="edge">
<title>N1&#45;&gt;output</title>
<path fill="none" stroke="#000000" d="M281.2513,-94.875C310.6612,-107.8701 357.951,-128.7655 390.5101,-143.1521"/>
<polygon fill="#000000" stroke="#000000" points="389.1286,-146.3681 399.6901,-147.2084 391.9578,-139.9653 389.1286,-146.3681"/>
</g>
<!-- N2&#45;&gt;output -->
<g id="edge14" class="edge">
<title>N2&#45;&gt;output</title>
<path fill="none" stroke="#000000" d="M281.2513,-223.125C310.6612,-210.1299 357.951,-189.2345 390.5101,-174.8479"/>
<polygon fill="#000000" stroke="#000000" points="391.9578,-178.0347 399.6901,-170.7916 389.1286,-171.6319 391.9578,-178.0347"/>
</g>
<!-- N3&#45;&gt;output -->
<g id="edge15" class="edge">
<title>N3&#45;&gt;output</title>
<path fill="none" stroke="#000000" d="M283.5538,-159C312.0563,-159 355.6312,-159 387.1541,-159"/>
<polygon fill="#000000" stroke="#000000" points="387.3433,-162.5001 397.3433,-159 387.3433,-155.5001 387.3433,-162.5001"/>
</g>
<!-- y -->
<g id="node9" class="node">
<title>y</title>
<ellipse fill="none" stroke="#000000" cx="597.3763" cy="-159" rx="29" ry="29"/>
<text text-anchor="middle" x="597.3763" y="-154.8" font-family="Times,serif" font-size="14.00" fill="#000000">y</text>
</g>
<!-- output&#45;&gt;y -->
<g id="edge16" class="edge">
<title>output&#45;&gt;y</title>
<path fill="none" stroke="#000000" d="M455.3842,-159C483.6353,-159 526.7809,-159 558.0978,-159"/>
<polygon fill="#000000" stroke="#000000" points="558.2263,-162.5001 568.2262,-159 558.2262,-155.5001 558.2263,-162.5001"/>
</g>
</g>
</svg>
